<svg width="156" height="156" viewBox="0 0 156 156" fill="none" xmlns="http://www.w3.org/2000/svg">
<g filter="url(#filter0_d_920_2)">
<circle cx="73" cy="74" r="72" fill="white"/>
<circle cx="73" cy="74" r="69.5" stroke="white" stroke-width="5"/>
</g>
<path d="M51.7256 76.3405C49.4881 75.8985 47.3629 75.017 45.4756 73.7481C43.5884 72.4792 41.9773 70.8486 40.7379 68.9528C39.4984 67.0571 38.6556 64.9345 38.2593 62.7108C37.8631 60.4871 37.9214 58.2073 38.4309 56.0063C38.9404 53.8052 39.8906 51.7276 41.2255 49.8964C42.5603 48.0651 44.2527 46.5173 46.2024 45.3446C48.1522 44.1719 50.3198 43.3979 52.577 43.0686C54.8342 42.7393 57.1352 42.8613 59.344 43.4274C60.9399 41.4223 62.975 39.8019 65.2959 38.6885C67.6167 37.5751 70.1627 36.9978 72.7418 37C75.3952 36.9977 78.0125 37.6087 80.3852 38.7843C82.7578 39.9599 84.8203 41.6676 86.4083 43.7715C88.6211 43.0285 90.9646 42.7433 93.2934 42.9333C95.6222 43.1234 97.8867 43.7847 99.9467 44.8764C102.007 45.968 103.818 47.4667 105.269 49.2796C106.72 51.0925 107.779 53.1809 108.381 55.4154C108.983 57.65 109.114 59.983 108.768 62.27C108.421 64.557 107.604 66.7493 106.366 68.7109C105.129 70.6725 103.497 72.3616 101.573 73.6737C99.649 74.9858 97.4731 75.8928 95.1802 76.3385V107.373C95.1802 108.41 94.764 109.404 94.0231 110.138C93.2823 110.871 92.2775 111.283 91.2298 111.283H55.676C54.6283 111.283 53.6235 110.871 52.8827 110.138C52.1418 109.404 51.7256 108.41 51.7256 107.373V76.3405ZM51.7256 83.9153V95.6442V83.9153Z" fill="#FF3364"/>
<path d="M51.7256 89.7798H95.1802M65.5521 78.0509V89.7798M95.1802 83.9153V95.6442M51.7256 83.9153V95.6442M51.7256 76.3405C49.4881 75.8985 47.3629 75.017 45.4756 73.7481C43.5884 72.4792 41.9773 70.8486 40.7379 68.9528C39.4984 67.0571 38.6556 64.9345 38.2593 62.7108C37.8631 60.4871 37.9214 58.2073 38.4309 56.0063C38.9404 53.8052 39.8906 51.7276 41.2255 49.8964C42.5603 48.0651 44.2527 46.5173 46.2024 45.3446C48.1522 44.1719 50.3198 43.3979 52.577 43.0686C54.8342 42.7393 57.1352 42.8613 59.344 43.4274C60.9399 41.4223 62.975 39.8019 65.2959 38.6885C67.6167 37.5751 70.1627 36.9978 72.7418 37C75.3952 36.9977 78.0125 37.6087 80.3852 38.7843C82.7578 39.9599 84.8203 41.6676 86.4083 43.7715C88.6211 43.0285 90.9646 42.7433 93.2934 42.9333C95.6221 43.1234 97.8867 43.7847 99.9467 44.8764C102.007 45.968 103.818 47.4667 105.269 49.2796C106.72 51.0925 107.779 53.1809 108.381 55.4154C108.983 57.65 109.114 59.983 108.768 62.27C108.421 64.557 107.604 66.7493 106.366 68.7109C105.129 70.6725 103.497 72.3616 101.573 73.6737C99.649 74.9858 97.4731 75.8928 95.1802 76.3385V107.373C95.1802 108.41 94.764 109.404 94.0231 110.138C93.2823 110.871 92.2775 111.283 91.2298 111.283H55.676C54.6283 111.283 53.6235 110.871 52.8827 110.138C52.1418 109.404 51.7256 108.41 51.7256 107.373V76.3405Z" stroke="white" stroke-width="5" stroke-linecap="round" stroke-linejoin="round"/>
<defs>
<filter id="filter0_d_920_2" x="0" y="0" width="156" height="156" filterUnits="userSpaceOnUse" color-interpolation-filters="sRGB">
<feFlood flood-opacity="0" result="BackgroundImageFix"/>
<feColorMatrix in="SourceAlpha" type="matrix" values="0 0 0 0 0 0 0 0 0 0 0 0 0 0 0 0 0 0 127 0" result="hardAlpha"/>
<feOffset dx="5" dy="4"/>
<feGaussianBlur stdDeviation="3"/>
<feComposite in2="hardAlpha" operator="out"/>
<feColorMatrix type="matrix" values="0 0 0 0 0 0 0 0 0 0 0 0 0 0 0 0 0 0 0.25 0"/>
<feBlend mode="normal" in2="BackgroundImageFix" result="effect1_dropShadow_920_2"/>
<feBlend mode="normal" in="SourceGraphic" in2="effect1_dropShadow_920_2" result="shape"/>
</filter>
</defs>
</svg>
